<mxfile host="app.diagrams.net" modified="2024-04-04T01:44:22.073Z" agent="Mozilla/5.0 (Windows NT 10.0; Win64; x64) AppleWebKit/537.36 (KHTML, like Gecko) Chrome/123.0.0.0 Safari/537.36" version="24.2.2" etag="9XP6Bj9Muq_UoNWZNXr8" type="github">
  <diagram name="Page-1" id="pSZh2NUHSfGsHw5_vPFt">
    <mxGraphModel>
      <root>
        <mxCell id="0" />
        <mxCell id="1" parent="0" />
      </root>
    </mxGraphModel>
  </diagram>
</mxfile>
